<?xml version="1.0" encoding="us-ascii" standalone="no"?><svg xmlns="http://www.w3.org/2000/svg" xmlns:xlink="http://www.w3.org/1999/xlink" contentStyleType="text/css" height="666px" preserveAspectRatio="none" style="width:1536px;height:666px;background:#FFFFFF;" version="1.1" viewBox="0 0 1536 666" width="1536px" zoomAndPan="magnify"><defs/><g><!--cluster Public Data--><g id="cluster_Public Data"><path d="M48.0105,285.5662 C62.5762,261.2601 81.3867,266.2865 94.6919,286.8768 C111.5837,254.6802 140.3876,259.6368 156.9805,287.1885 C172.8209,263.8211 188.8821,262.9308 205.1164,286.7869 C223.7689,254.1753 248.0119,258.784 265.2651,288.145 C278.2365,262.0404 301.1613,266.0528 316.1412,285.9223 C325.7643,254.9863 352.4053,248.3743 372.3226,276.056 C392.1573,253.7353 411.7249,255.7709 427.2398,281.0407 C445.6903,257.3311 463.3223,256.7019 483.1606,279.3673 C498.3048,257.6471 521.7151,254.1157 534.3335,281.9743 C553.7764,263.1813 571.6152,262.5599 585.6536,288.2145 C603.6326,257.6541 623.7515,261.3694 641.5619,288.3783 C658.5272,261.5128 674.8778,263.6542 695.2439,284.5566 C714.734,263.6629 730.8872,262.9334 745.5745,289.6354 C762.8547,264.7784 790.7048,260.6414 806.6302,291.13 C812.3665,289.9411 815.9534,293.4673 814.3552,299.2533 C838.7184,313.4798 843.0137,328.7508 819.1994,347.786 C845.9723,362.0477 848.8306,387.4348 821.6435,404.0409 C847.3489,424.5817 840.3348,441.3935 816.0912,456.6642 C842.9382,475.5964 844.0435,495.1199 815.0987,513.0704 C833.4823,527.9891 833.9718,542.9724 814.846,557.6786 C842.3848,581.0039 827.9711,607.4563 799.6302,616.27 C802.9871,616.9649 804.1735,618.9698 801.7542,621.8596 C784.4538,648.8738 765.706,648.1975 747.2493,623.0684 C731.0041,642.491 712.0099,645.3443 697.8959,620.6825 C680.6567,650.7793 656.3157,654.9751 637.3045,622.3957 C623.2807,647.3913 604.7362,641.8785 590.1895,622.9567 C580.3555,652.8124 553.3981,649.5569 537.2468,629.6821 C517.3925,654.6473 499.1898,652.4835 482.6022,626.1991 C463.6964,656.9195 441.6895,652.8586 421.0852,628.0819 C407.6153,648.6817 390.7054,651.8402 373.441,632.6223 C354.0087,657.9228 335.3168,659.6105 315.1498,633.4544 C294.0668,653.7824 277.2798,651.3232 264.2356,624.7312 C248.1285,653.3642 228.5697,652.3094 210.8118,626.3467 C196.8346,653.4571 167.8651,653.3289 151.3035,629.3574 C134.0431,651.7359 110.2855,651.2564 95.8268,626.0884 C68.7185,648.6577 44.5044,643.9442 32.6302,609.27 C34.9117,606.4414 38.4694,606.2348 39.8698,610.2078 C15.4818,594.9116 15.5824,573.2387 39.6848,557.7714 C20.1415,542.1144 12.5963,528.1304 37.7488,510.6374 C10.0277,497.5083 9.0907,475.6612 35.3142,459.9415 C6.2169,438.7141 6,417.3571 37.9886,398.8019 C12.824,383.5782 13.3887,359.2275 39.7144,345.6765 C9.9758,325.0267 10.8216,304.86 39.6302,284.13 C42.8561,280.7493 46.1776,280.8187 48.0105,285.5662 " fill="none" style="stroke:#181818;stroke-width:1.0;"/><text fill="#000000" font-family="sans-serif" font-size="14" font-weight="bold" lengthAdjust="spacing" textLength="78" x="380.6302" y="304.0959">Public Data</text></g><!--cluster Publishers--><g id="cluster_Publishers"><path d="M56.6302,340.13 C56.6302,330.13 223.6302,330.13 223.6302,330.13 C223.6302,330.13 390.6302,330.13 390.6302,340.13 L390.6302,582.27 C390.6302,592.27 223.6302,592.27 223.6302,592.27 C223.6302,592.27 56.6302,592.27 56.6302,582.27 L56.6302,340.13 " fill="none" style="stroke:#181818;stroke-width:1.0;"/><path d="M56.6302,340.13 C56.6302,350.13 223.6302,350.13 223.6302,350.13 C223.6302,350.13 390.6302,350.13 390.6302,340.13 " fill="none" style="stroke:#181818;stroke-width:1.0;"/><text fill="#000000" font-family="sans-serif" font-size="14" font-weight="bold" lengthAdjust="spacing" textLength="72" x="187.6302" y="367.0959">Publishers</text></g><!--cluster Subscribers--><g id="cluster_Subscribers"><path d="M430.6302,340.13 C430.6302,330.13 606.6302,330.13 606.6302,330.13 C606.6302,330.13 782.6302,330.13 782.6302,340.13 L782.6302,582.27 C782.6302,592.27 606.6302,592.27 606.6302,592.27 C606.6302,592.27 430.6302,592.27 430.6302,582.27 L430.6302,340.13 " fill="none" style="stroke:#181818;stroke-width:1.0;"/><path d="M430.6302,340.13 C430.6302,350.13 606.6302,350.13 606.6302,350.13 C606.6302,350.13 782.6302,350.13 782.6302,340.13 " fill="none" style="stroke:#181818;stroke-width:1.0;"/><text fill="#000000" font-family="sans-serif" font-size="14" font-weight="bold" lengthAdjust="spacing" textLength="80" x="566.6302" y="367.0959">Subscribers</text></g><!--cluster Subsystems--><g id="cluster_Subsystems"><polygon fill="none" points="846.6302,139.07,856.6302,129.07,1198.6302,129.07,1198.6302,454.2,1188.6302,464.2,846.6302,464.2,846.6302,139.07" style="stroke:#181818;stroke-width:1.0;"/><line style="stroke:#181818;stroke-width:1.0;" x1="1188.6302" x2="1198.6302" y1="139.07" y2="129.07"/><line style="stroke:#181818;stroke-width:1.0;" x1="846.6302" x2="1188.6302" y1="139.07" y2="139.07"/><line style="stroke:#181818;stroke-width:1.0;" x1="1188.6302" x2="1188.6302" y1="139.07" y2="464.2"/><text fill="#000000" font-family="sans-serif" font-size="14" font-weight="bold" lengthAdjust="spacing" textLength="83" x="977.1302" y="157.0359">Subsystems</text></g><!--cluster Mock--><g id="cluster_Mock"><polygon fill="none" points="1243.6302,139.07,1253.6302,129.07,1519.6302,129.07,1519.6302,454.2,1509.6302,464.2,1243.6302,464.2,1243.6302,139.07" style="stroke:#181818;stroke-width:1.0;"/><line style="stroke:#181818;stroke-width:1.0;" x1="1509.6302" x2="1519.6302" y1="139.07" y2="129.07"/><line style="stroke:#181818;stroke-width:1.0;" x1="1243.6302" x2="1509.6302" y1="139.07" y2="139.07"/><line style="stroke:#181818;stroke-width:1.0;" x1="1509.6302" x2="1509.6302" y1="139.07" y2="464.2"/><text fill="#000000" font-family="sans-serif" font-size="14" font-weight="bold" lengthAdjust="spacing" textLength="38" x="1358.6302" y="157.0359">Mock</text></g><!--entity Publisher 1--><g id="elem_Publisher 1"><rect fill="#008000" height="49.0679" rx="2.5" ry="2.5" style="stroke:#181818;stroke-width:0.5;" width="116" x="80.6302" y="391.13"/><rect fill="#008000" height="10" style="stroke:#181818;stroke-width:0.5;" width="15" x="176.6302" y="396.13"/><rect fill="#008000" height="2" style="stroke:#181818;stroke-width:0.5;" width="4" x="174.6302" y="398.13"/><rect fill="#008000" height="2" style="stroke:#181818;stroke-width:0.5;" width="4" x="174.6302" y="402.13"/><text fill="#000000" font-family="sans-serif" font-size="14" lengthAdjust="spacing" textLength="76" x="95.6302" y="426.0959">Publisher 1</text></g><!--entity Publisher 2--><g id="elem_Publisher 2"><rect fill="#008000" height="49.0679" rx="2.5" ry="2.5" style="stroke:#181818;stroke-width:0.5;" width="116" x="231.6302" y="391.13"/><rect fill="#008000" height="10" style="stroke:#181818;stroke-width:0.5;" width="15" x="327.6302" y="396.13"/><rect fill="#008000" height="2" style="stroke:#181818;stroke-width:0.5;" width="4" x="325.6302" y="398.13"/><rect fill="#008000" height="2" style="stroke:#181818;stroke-width:0.5;" width="4" x="325.6302" y="402.13"/><text fill="#000000" font-family="sans-serif" font-size="14" lengthAdjust="spacing" textLength="76" x="246.6302" y="426.0959">Publisher 2</text></g><!--entity Publisher 3--><g id="elem_Publisher 3"><rect fill="#008000" height="49.0679" rx="2.5" ry="2.5" style="stroke:#181818;stroke-width:0.5;" width="116" x="80.6302" y="519.2"/><rect fill="#008000" height="10" style="stroke:#181818;stroke-width:0.5;" width="15" x="176.6302" y="524.2"/><rect fill="#008000" height="2" style="stroke:#181818;stroke-width:0.5;" width="4" x="174.6302" y="526.2"/><rect fill="#008000" height="2" style="stroke:#181818;stroke-width:0.5;" width="4" x="174.6302" y="530.2"/><text fill="#000000" font-family="sans-serif" font-size="14" lengthAdjust="spacing" textLength="76" x="95.6302" y="554.1659">Publisher 3</text></g><!--entity Publisher ...--><g id="elem_Publisher ..."><rect fill="#008000" height="49.0679" rx="2.5" ry="2.5" style="stroke:#181818;stroke-width:0.5;" width="120" x="231.6302" y="519.2"/><rect fill="#008000" height="10" style="stroke:#181818;stroke-width:0.5;" width="15" x="331.6302" y="524.2"/><rect fill="#008000" height="2" style="stroke:#181818;stroke-width:0.5;" width="4" x="329.6302" y="526.2"/><rect fill="#008000" height="2" style="stroke:#181818;stroke-width:0.5;" width="4" x="329.6302" y="530.2"/><text fill="#000000" font-family="sans-serif" font-size="14" lengthAdjust="spacing" textLength="80" x="246.6302" y="554.1659">Publisher ...</text></g><!--entity Subscriber 1--><g id="elem_Subscriber 1"><rect fill="#0000FF" height="49.0679" rx="2.5" ry="2.5" style="stroke:#181818;stroke-width:0.5;" width="125" x="454.1302" y="391.13"/><rect fill="#0000FF" height="10" style="stroke:#181818;stroke-width:0.5;" width="15" x="559.1302" y="396.13"/><rect fill="#0000FF" height="2" style="stroke:#181818;stroke-width:0.5;" width="4" x="557.1302" y="398.13"/><rect fill="#0000FF" height="2" style="stroke:#181818;stroke-width:0.5;" width="4" x="557.1302" y="402.13"/><text fill="#000000" font-family="sans-serif" font-size="14" lengthAdjust="spacing" textLength="85" x="469.1302" y="426.0959">Subscriber 1</text></g><!--entity Subscriber 2--><g id="elem_Subscriber 2"><rect fill="#0000FF" height="49.0679" rx="2.5" ry="2.5" style="stroke:#181818;stroke-width:0.5;" width="125" x="614.1302" y="391.13"/><rect fill="#0000FF" height="10" style="stroke:#181818;stroke-width:0.5;" width="15" x="719.1302" y="396.13"/><rect fill="#0000FF" height="2" style="stroke:#181818;stroke-width:0.5;" width="4" x="717.1302" y="398.13"/><rect fill="#0000FF" height="2" style="stroke:#181818;stroke-width:0.5;" width="4" x="717.1302" y="402.13"/><text fill="#000000" font-family="sans-serif" font-size="14" lengthAdjust="spacing" textLength="85" x="629.1302" y="426.0959">Subscriber 2</text></g><!--entity Subscriber 3--><g id="elem_Subscriber 3"><rect fill="#0000FF" height="49.0679" rx="2.5" ry="2.5" style="stroke:#181818;stroke-width:0.5;" width="125" x="454.1302" y="519.2"/><rect fill="#0000FF" height="10" style="stroke:#181818;stroke-width:0.5;" width="15" x="559.1302" y="524.2"/><rect fill="#0000FF" height="2" style="stroke:#181818;stroke-width:0.5;" width="4" x="557.1302" y="526.2"/><rect fill="#0000FF" height="2" style="stroke:#181818;stroke-width:0.5;" width="4" x="557.1302" y="530.2"/><text fill="#000000" font-family="sans-serif" font-size="14" lengthAdjust="spacing" textLength="85" x="469.1302" y="554.1659">Subscriber 3</text></g><!--entity Subscriber ...--><g id="elem_Subscriber ..."><rect fill="#0000FF" height="49.0679" rx="2.5" ry="2.5" style="stroke:#181818;stroke-width:0.5;" width="129" x="614.1302" y="519.2"/><rect fill="#0000FF" height="10" style="stroke:#181818;stroke-width:0.5;" width="15" x="723.1302" y="524.2"/><rect fill="#0000FF" height="2" style="stroke:#181818;stroke-width:0.5;" width="4" x="721.1302" y="526.2"/><rect fill="#0000FF" height="2" style="stroke:#181818;stroke-width:0.5;" width="4" x="721.1302" y="530.2"/><text fill="#000000" font-family="sans-serif" font-size="14" lengthAdjust="spacing" textLength="89" x="629.1302" y="554.1659">Subscriber ...</text></g><!--entity Subsystem 1--><g id="elem_Subsystem 1"><rect fill="#F1F1F1" height="49.0679" rx="2.5" ry="2.5" style="stroke:#181818;stroke-width:0.5;" width="125" x="890.1302" y="180.07"/><rect fill="#F1F1F1" height="10" style="stroke:#181818;stroke-width:0.5;" width="15" x="995.1302" y="185.07"/><rect fill="#F1F1F1" height="2" style="stroke:#181818;stroke-width:0.5;" width="4" x="993.1302" y="187.07"/><rect fill="#F1F1F1" height="2" style="stroke:#181818;stroke-width:0.5;" width="4" x="993.1302" y="191.07"/><text fill="#000000" font-family="sans-serif" font-size="14" lengthAdjust="spacing" textLength="85" x="905.1302" y="215.0359">Subsystem 1</text></g><!--entity Subsystem 2--><g id="elem_Subsystem 2"><rect fill="#F1F1F1" height="49.0679" rx="2.5" ry="2.5" style="stroke:#181818;stroke-width:0.5;" width="125" x="1050.1302" y="180.07"/><rect fill="#F1F1F1" height="10" style="stroke:#181818;stroke-width:0.5;" width="15" x="1155.1302" y="185.07"/><rect fill="#F1F1F1" height="2" style="stroke:#181818;stroke-width:0.5;" width="4" x="1153.1302" y="187.07"/><rect fill="#F1F1F1" height="2" style="stroke:#181818;stroke-width:0.5;" width="4" x="1153.1302" y="191.07"/><text fill="#000000" font-family="sans-serif" font-size="14" lengthAdjust="spacing" textLength="85" x="1065.1302" y="215.0359">Subsystem 2</text></g><!--entity Subsystem 3--><g id="elem_Subsystem 3"><rect fill="#F1F1F1" height="49.0679" rx="2.5" ry="2.5" style="stroke:#181818;stroke-width:0.5;" width="125" x="885.1302" y="391.13"/><rect fill="#F1F1F1" height="10" style="stroke:#181818;stroke-width:0.5;" width="15" x="990.1302" y="396.13"/><rect fill="#F1F1F1" height="2" style="stroke:#181818;stroke-width:0.5;" width="4" x="988.1302" y="398.13"/><rect fill="#F1F1F1" height="2" style="stroke:#181818;stroke-width:0.5;" width="4" x="988.1302" y="402.13"/><text fill="#000000" font-family="sans-serif" font-size="14" lengthAdjust="spacing" textLength="85" x="900.1302" y="426.0959">Subsystem 3</text></g><!--entity Subsystem ...--><g id="elem_Subsystem ..."><rect fill="#F1F1F1" height="49.0679" rx="2.5" ry="2.5" style="stroke:#181818;stroke-width:0.5;" width="129" x="1045.1302" y="391.13"/><rect fill="#F1F1F1" height="10" style="stroke:#181818;stroke-width:0.5;" width="15" x="1154.1302" y="396.13"/><rect fill="#F1F1F1" height="2" style="stroke:#181818;stroke-width:0.5;" width="4" x="1152.1302" y="398.13"/><rect fill="#F1F1F1" height="2" style="stroke:#181818;stroke-width:0.5;" width="4" x="1152.1302" y="402.13"/><text fill="#000000" font-family="sans-serif" font-size="14" lengthAdjust="spacing" textLength="89" x="1060.1302" y="426.0959">Subsystem ...</text></g><!--entity Mock 1--><g id="elem_Mock 1"><rect fill="#F1F1F1" height="49.0679" rx="2.5" ry="2.5" style="stroke:#181818;stroke-width:0.5;" width="87" x="1287.1302" y="180.07"/><rect fill="#F1F1F1" height="10" style="stroke:#181818;stroke-width:0.5;" width="15" x="1354.1302" y="185.07"/><rect fill="#F1F1F1" height="2" style="stroke:#181818;stroke-width:0.5;" width="4" x="1352.1302" y="187.07"/><rect fill="#F1F1F1" height="2" style="stroke:#181818;stroke-width:0.5;" width="4" x="1352.1302" y="191.07"/><text fill="#000000" font-family="sans-serif" font-size="14" lengthAdjust="spacing" textLength="47" x="1302.1302" y="215.0359">Mock 1</text></g><!--entity Mock 2--><g id="elem_Mock 2"><rect fill="#F1F1F1" height="49.0679" rx="2.5" ry="2.5" style="stroke:#181818;stroke-width:0.5;" width="87" x="1409.1302" y="180.07"/><rect fill="#F1F1F1" height="10" style="stroke:#181818;stroke-width:0.5;" width="15" x="1476.1302" y="185.07"/><rect fill="#F1F1F1" height="2" style="stroke:#181818;stroke-width:0.5;" width="4" x="1474.1302" y="187.07"/><rect fill="#F1F1F1" height="2" style="stroke:#181818;stroke-width:0.5;" width="4" x="1474.1302" y="191.07"/><text fill="#000000" font-family="sans-serif" font-size="14" lengthAdjust="spacing" textLength="47" x="1424.1302" y="215.0359">Mock 2</text></g><!--entity Mock 3--><g id="elem_Mock 3"><rect fill="#F1F1F1" height="49.0679" rx="2.5" ry="2.5" style="stroke:#181818;stroke-width:0.5;" width="87" x="1282.1302" y="391.13"/><rect fill="#F1F1F1" height="10" style="stroke:#181818;stroke-width:0.5;" width="15" x="1349.1302" y="396.13"/><rect fill="#F1F1F1" height="2" style="stroke:#181818;stroke-width:0.5;" width="4" x="1347.1302" y="398.13"/><rect fill="#F1F1F1" height="2" style="stroke:#181818;stroke-width:0.5;" width="4" x="1347.1302" y="402.13"/><text fill="#000000" font-family="sans-serif" font-size="14" lengthAdjust="spacing" textLength="47" x="1297.1302" y="426.0959">Mock 3</text></g><!--entity Mock ...--><g id="elem_Mock ..."><rect fill="#F1F1F1" height="49.0679" rx="2.5" ry="2.5" style="stroke:#181818;stroke-width:0.5;" width="91" x="1404.1302" y="391.13"/><rect fill="#F1F1F1" height="10" style="stroke:#181818;stroke-width:0.5;" width="15" x="1475.1302" y="396.13"/><rect fill="#F1F1F1" height="2" style="stroke:#181818;stroke-width:0.5;" width="4" x="1473.1302" y="398.13"/><rect fill="#F1F1F1" height="2" style="stroke:#181818;stroke-width:0.5;" width="4" x="1473.1302" y="402.13"/><text fill="#000000" font-family="sans-serif" font-size="14" lengthAdjust="spacing" textLength="51" x="1419.1302" y="426.0959">Mock ...</text></g><!--entity GMSE--><g id="elem_GMSE"><rect fill="#F1F1F1" height="49.0679" rx="2.5" ry="2.5" style="stroke:#181818;stroke-width:0.5;" width="79" x="699.1302" y="7"/><rect fill="#F1F1F1" height="10" style="stroke:#181818;stroke-width:0.5;" width="15" x="758.1302" y="12"/><rect fill="#F1F1F1" height="2" style="stroke:#181818;stroke-width:0.5;" width="4" x="756.1302" y="14"/><rect fill="#F1F1F1" height="2" style="stroke:#181818;stroke-width:0.5;" width="4" x="756.1302" y="18"/><text fill="#000000" font-family="sans-serif" font-size="14" lengthAdjust="spacing" textLength="39" x="714.1302" y="41.9659">GMSE</text></g><!--link GMSE to Publishers--><g id="link_GMSE_Publishers"><path d="M698.7202,54.23 C635.2802,90.6 511.2102,169.64 438.6302,268.13 C418.2752,295.755 404.3902,331.685 395.5377,361.0525 C394.4311,364.7234 393.4032,368.2918 392.4511,371.7287 C391.975,373.4471 391.5179,375.1326 391.0795,376.7816 C390.9698,377.1938 392.3888,371.8015 392.2815,372.2091 " fill="none" id="GMSE-to-Publishers" style="stroke:#181818;stroke-width:1.0;"/><polygon fill="#181818" points="390.7541,378.0114,396.9134,370.3262,392.0269,373.1761,389.1769,368.2897,390.7541,378.0114" style="stroke:#181818;stroke-width:1.0;"/><text fill="#000000" font-family="sans-serif" font-size="13" lengthAdjust="spacing" textLength="43" x="607.6302" y="209.997">creates</text></g><!--link GMSE to Subscribers--><g id="link_GMSE_Subscribers"><path d="M740.8802,56.44 C744.7902,97.94 753.1277,186.4275 760.5377,265.0687 C762.3902,284.7291 764.1847,303.774 765.8376,321.3155 C766.0442,323.5082 766.2486,325.6774 766.4506,327.8213 C766.5011,328.3573 765.9886,322.9182 766.0388,323.451 " fill="none" id="GMSE-to-Subscribers" style="stroke:#181818;stroke-width:1.0;"/><polygon fill="#181818" points="766.6017,329.4246,769.7398,320.089,766.1326,324.4466,761.775,320.8395,766.6017,329.4246" style="stroke:#181818;stroke-width:1.0;"/><text fill="#000000" font-family="sans-serif" font-size="13" lengthAdjust="spacing" textLength="43" x="758.6302" y="209.997">creates</text></g><!--link GMSE to Subsystems--><g id="link_GMSE_Subsystems"><path d="M754.7602,56.32 C770.4452,79.455 794.8827,115.495 815.6577,146.1325 C826.0452,161.4513 835.5171,175.4194 842.5214,185.7484 C843.397,187.0396 844.234,188.2738 845.0294,189.4468 C845.4271,190.0333 845.8144,190.6044 846.1909,191.1596 C846.2851,191.2985 843.011,186.4704 843.1038,186.6072 " fill="none" id="GMSE-to-Subsystems" style="stroke:#181818;stroke-width:1.0;"/><polygon fill="#181818" points="846.4713,191.5731,844.7306,181.8793,843.665,187.4349,838.1094,186.3693,846.4713,191.5731" style="stroke:#181818;stroke-width:1.0;"/><text fill="#000000" font-family="sans-serif" font-size="13" lengthAdjust="spacing" textLength="53" x="786.6302" y="100.967">executes</text></g><!--link GMSE to Mock--><g id="link_GMSE_Mock"><path d="M778.5702,35.66 C875.9302,43.91 1122.4902,68.71 1190.6302,113.07 C1210.6452,126.095 1225.7352,148.23 1235.9002,167.3512 C1238.4414,172.1316 1240.6749,176.7235 1242.6005,180.9377 C1242.8412,181.4644 1243.0771,181.9853 1243.3082,182.4999 C1243.366,182.6286 1240.9743,177.2794 1241.0315,177.4073 " fill="none" id="GMSE-to-Mock" style="stroke:#181818;stroke-width:1.0;"/><polygon fill="#181818" points="1243.4806,182.8847,1243.4585,173.0358,1241.4397,178.3202,1236.1553,176.3013,1243.4806,182.8847" style="stroke:#181818;stroke-width:1.0;"/><text fill="#000000" font-family="sans-serif" font-size="13" lengthAdjust="spacing" textLength="53" x="1172.6302" y="100.967">executes</text></g><!--link Mock to Publishers--><g id="link_Mock_Publishers"><path d="M1243.459,209.7173 C1243.3963,209.7476 1243.3333,209.7781 1243.27,209.8087 C1243.1434,209.8698 1243.0156,209.9315 1242.8866,209.9936 C1242.6286,210.1178 1242.3659,210.244 1242.0985,210.3719 C1241.0288,210.8836 1239.8846,211.4241 1238.6742,211.9867 C1236.2534,213.1121 1233.5674,214.3266 1230.6814,215.5787 C1219.1377,220.5875 1204.3952,226.2 1190.6302,229.13 C1180.4002,231.31 447.0902,261.98 438.6302,268.13 C424.7552,278.2225 414.3177,292.2225 406.4661,307.5955 C402.5403,315.282 399.261,323.3117 396.5218,331.3678 C395.1522,335.3959 393.9175,339.4306 392.8046,343.4323 C392.2482,345.4331 391.7221,347.4257 391.2249,349.4051 C391.1006,349.9 390.978,350.394 390.8573,350.8871 C390.7969,351.1337 392.1468,345.548 392.0873,345.7941 " fill="none" id="Mock-to-Publishers" style="stroke:#181818;stroke-width:1.0;"/><polygon fill="#181818" points="390.6775,351.6261,396.6802,343.8179,391.8523,346.7661,388.9042,341.9382,390.6775,351.6261" style="stroke:#181818;stroke-width:1.0;"/></g><!--link Mock to Subscribers--><g id="link_Mock_Subscribers"><path d="M1243.5999,209.4385 C1243.101,209.6693 1242.5824,209.9081 1242.0453,210.154 C1240.971,210.6458 1239.8223,211.1664 1238.6074,211.7099 C1236.1778,212.7969 1233.4836,213.9756 1230.5914,215.2 C1219.0227,220.0975 1204.2852,225.725 1190.6302,229.13 C1051.1902,263.93 991.5302,192.01 869.6302,268.13 C837.2302,288.37 813.7102,324.185 798.1777,355.34 C794.2946,363.1288 790.9107,370.6263 788.012,377.5163 C786.5627,380.9614 785.2347,384.2546 784.0263,387.3564 C783.7242,388.1318 783.4295,388.8953 783.1424,389.6462 C782.9988,390.0217 784.9833,384.7834 784.8434,385.1524 " fill="none" id="Mock-to-Subscribers" style="stroke:#181818;stroke-width:1.0;"/><polygon fill="#181818" points="782.7172,390.7631,789.647,383.7646,784.489,386.0876,782.1661,380.9296,782.7172,390.7631" style="stroke:#181818;stroke-width:1.0;"/></g><!--link Subsystems to Publishers--><g id="link_Subsystems_Publishers"><path d="M846.4543,207.3852 C846.3599,207.4057 846.2647,207.4263 846.1688,207.447 C845.7852,207.5299 845.39,207.6153 844.9834,207.703 C844.1701,207.8785 843.3114,208.0633 842.4094,208.257 C835.1936,209.8066 825.2121,211.9206 813.6439,214.2913 C790.5077,219.0325 761.0252,224.8 734.6302,229.13 C631.1102,246.13 604.6502,246.53 500.6302,260.13 C486.8602,261.94 449.5402,259.54 438.6302,268.13 C425.1502,278.745 414.9133,293.01 407.1397,308.4856 C403.2529,316.2234 399.9819,324.2639 397.2293,332.3021 C395.853,336.3212 394.6063,340.3397 393.4769,344.3196 C392.9123,346.3095 392.3769,348.2898 391.8694,350.2556 C391.6157,351.2385 391.3689,352.2178 391.1289,353.1929 C391.0089,353.6805 392.2926,348.3331 392.176,348.8185 " fill="none" id="Subsystems-to-Publishers" style="stroke:#181818;stroke-width:1.0;stroke-dasharray:7.0,7.0;"/><polygon fill="#181818" points="390.7739,354.6523,396.7663,346.8362,391.9423,349.7908,388.9878,344.9668,390.7739,354.6523" style="stroke:#181818;stroke-width:1.0;"/></g><!--link Subscribers to Subsystems--><g id="link_Subscribers_Subsystems"><path d="M782.7269,393.5112 C784.26,389.5044 785.9708,385.0329 787.8239,380.1897 C795.2364,360.8169 804.9252,335.4962 814.6152,310.1725 C824.3052,284.8488 833.9964,259.5219 841.4139,240.1366 C843.2683,235.2902 842.8364,236.4191 844.371,232.4083 " fill="none" id="Subscribers-to-Subsystems" style="stroke:#181818;stroke-width:1.0;stroke-dasharray:7.0,7.0;"/><polygon fill="#181818" points="846.5152,226.8045,839.5631,233.7808,844.7284,231.4743,847.0348,236.6396,846.5152,226.8045" style="stroke:#181818;stroke-width:1.0;"/></g><!--SRC=[VP6n2eCm54NtVCMZdHMgMuSEfSL9A3YAGumFAhKAYO6Muh_NnAf9i76AvxvuZmbhEbd1xYRBfcPmeJtTVGX0DIvAAX1q8Ex8XSBpaoyO3WNi4uxORiUHFuxzSHY6ni10JBDCbeBnkdJLLgxTpet4Ft7aZsD_FBdz1WOoohLTDMczHOzF0QjMlj3HQOj6cpJUfAfugKixzZ2BzBlPeK7aWjW5yqVp9Csk1GJ1oRW7KS0H64VQex0cZ3lmZKpdeIRmXKow8qh03YVYIbZSh2PMo_WlxZxBKyV61l85]--></g></svg>