<?xml version="1.0" encoding="us-ascii" standalone="no"?><svg xmlns="http://www.w3.org/2000/svg" xmlns:xlink="http://www.w3.org/1999/xlink" contentStyleType="text/css" height="247px" preserveAspectRatio="none" style="width:515px;height:247px;background:#FFFFFF;" version="1.1" viewBox="0 0 515 247" width="515px" zoomAndPan="magnify"><defs/><g><rect fill="#F1F1F1" height="161.4754" rx="5" ry="5" style="stroke:#F1F1F1;stroke-width:1.5;" width="167" x="10" y="10"/><text fill="#000000" font-family="sans-serif" font-size="14" font-weight="bold" lengthAdjust="spacing" textLength="39" x="15" y="26.9659">name</text><text fill="#000000" font-family="sans-serif" font-size="14" lengthAdjust="spacing" textLength="40" x="132" y="26.9659">string</text><line style="stroke:#000000;stroke-width:1.0;" x1="127" x2="127" y1="10" y2="33.0679"/><line style="stroke:#000000;stroke-width:1.0;" x1="10" x2="177" y1="33.0679" y2="33.0679"/><text fill="#000000" font-family="sans-serif" font-size="14" font-weight="bold" lengthAdjust="spacing" textLength="31" x="15" y="50.0339">type</text><text fill="#000000" font-family="sans-serif" font-size="14" lengthAdjust="spacing" textLength="40" x="132" y="50.0339">string</text><line style="stroke:#000000;stroke-width:1.0;" x1="127" x2="127" y1="33.0679" y2="56.1358"/><line style="stroke:#000000;stroke-width:1.0;" x1="10" x2="177" y1="56.1358" y2="56.1358"/><text fill="#000000" font-family="sans-serif" font-size="14" font-weight="bold" lengthAdjust="spacing" textLength="49" x="15" y="73.1018">refresh</text><text fill="#000000" font-family="sans-serif" font-size="14" lengthAdjust="spacing" textLength="30" x="132" y="73.1018">float</text><line style="stroke:#000000;stroke-width:1.0;" x1="127" x2="127" y1="56.1358" y2="79.2038"/><line style="stroke:#000000;stroke-width:1.0;" x1="10" x2="177" y1="79.2038" y2="79.2038"/><text fill="#000000" font-family="sans-serif" font-size="14" font-weight="bold" lengthAdjust="spacing" textLength="64" x="15" y="96.1697">language</text><text fill="#000000" font-family="sans-serif" font-size="14" lengthAdjust="spacing" textLength="40" x="132" y="96.1697">string</text><line style="stroke:#000000;stroke-width:1.0;" x1="127" x2="127" y1="79.2038" y2="102.2717"/><line style="stroke:#000000;stroke-width:1.0;" x1="10" x2="177" y1="102.2717" y2="102.2717"/><text fill="#000000" font-family="sans-serif" font-size="14" font-weight="bold" lengthAdjust="spacing" textLength="72" x="15" y="119.2376">publishers</text><text fill="#000000" font-family="sans-serif" font-size="14" lengthAdjust="spacing" textLength="12" x="132" y="119.2376">&#160;&#160;&#160;</text><line style="stroke:#000000;stroke-width:1.0;" x1="127" x2="127" y1="102.2717" y2="125.3396"/><line style="stroke:#000000;stroke-width:1.0;" x1="10" x2="177" y1="125.3396" y2="125.3396"/><text fill="#000000" font-family="sans-serif" font-size="14" font-weight="bold" lengthAdjust="spacing" textLength="79" x="15" y="142.3055">subscribers</text><text fill="#000000" font-family="sans-serif" font-size="14" lengthAdjust="spacing" textLength="12" x="132" y="142.3055">&#160;&#160;&#160;</text><line style="stroke:#000000;stroke-width:1.0;" x1="127" x2="127" y1="125.3396" y2="148.4075"/><line style="stroke:#000000;stroke-width:1.0;" x1="10" x2="177" y1="148.4075" y2="148.4075"/><text fill="#000000" font-family="sans-serif" font-size="14" font-weight="bold" lengthAdjust="spacing" textLength="107" x="15" y="165.3734">(logger) output</text><text fill="#000000" font-family="sans-serif" font-size="14" lengthAdjust="spacing" textLength="12" x="132" y="165.3734">&#160;&#160;&#160;</text><line style="stroke:#000000;stroke-width:1.0;" x1="127" x2="127" y1="148.4075" y2="171.4754"/><rect fill="none" height="161.4754" rx="5" ry="5" style="stroke:#000000;stroke-width:1.5;" width="167" x="10" y="10"/><rect fill="#F1F1F1" height="46.1358" rx="5" ry="5" style="stroke:#F1F1F1;stroke-width:1.5;" width="99" x="231" y="37.6698"/><text fill="#000000" font-family="sans-serif" font-size="14" font-weight="bold" lengthAdjust="spacing" textLength="39" x="236" y="54.6357">name</text><text fill="#000000" font-family="sans-serif" font-size="14" lengthAdjust="spacing" textLength="40" x="285" y="54.6357">string</text><line style="stroke:#000000;stroke-width:1.0;" x1="280" x2="280" y1="37.6698" y2="60.7377"/><line style="stroke:#000000;stroke-width:1.0;" x1="231" x2="330" y1="60.7377" y2="60.7377"/><text fill="#000000" font-family="sans-serif" font-size="14" font-weight="bold" lengthAdjust="spacing" textLength="29" x="236" y="77.7036">vars</text><text fill="#000000" font-family="sans-serif" font-size="14" lengthAdjust="spacing" textLength="12" x="285" y="77.7036">&#160;&#160;&#160;</text><line style="stroke:#000000;stroke-width:1.0;" x1="280" x2="280" y1="60.7377" y2="83.8056"/><rect fill="none" height="46.1358" rx="5" ry="5" style="stroke:#000000;stroke-width:1.5;" width="99" x="231" y="37.6698"/><rect fill="#F1F1F1" height="69.2038" rx="5" ry="5" style="stroke:#F1F1F1;stroke-width:1.5;" width="119" x="384" y="38.1358"/><text fill="#000000" font-family="sans-serif" font-size="14" lengthAdjust="spacing" textLength="109" x="389" y="55.1018">name, data type</text><line style="stroke:#000000;stroke-width:1.0;" x1="384" x2="503" y1="61.2038" y2="61.2038"/><text fill="#000000" font-family="sans-serif" font-size="14" lengthAdjust="spacing" textLength="109" x="389" y="78.1697">name, data type</text><line style="stroke:#000000;stroke-width:1.0;" x1="384" x2="503" y1="84.2717" y2="84.2717"/><text fill="#000000" font-family="sans-serif" font-size="14" lengthAdjust="spacing" textLength="12" x="389" y="101.2376">...</text><rect fill="none" height="69.2038" rx="5" ry="5" style="stroke:#000000;stroke-width:1.5;" width="119" x="384" y="38.1358"/><rect fill="#F1F1F1" height="69.2038" rx="5" ry="5" style="stroke:#F1F1F1;stroke-width:1.5;" width="48" x="256.5" y="102.1358"/><text fill="#000000" font-family="sans-serif" font-size="14" lengthAdjust="spacing" textLength="38" x="261.5" y="119.1018">name</text><line style="stroke:#000000;stroke-width:1.0;" x1="256.5" x2="304.5" y1="125.2038" y2="125.2038"/><text fill="#000000" font-family="sans-serif" font-size="14" lengthAdjust="spacing" textLength="38" x="261.5" y="142.1697">name</text><line style="stroke:#000000;stroke-width:1.0;" x1="256.5" x2="304.5" y1="148.2717" y2="148.2717"/><text fill="#000000" font-family="sans-serif" font-size="14" lengthAdjust="spacing" textLength="12" x="261.5" y="165.2376">...</text><rect fill="none" height="69.2038" rx="5" ry="5" style="stroke:#000000;stroke-width:1.5;" width="48" x="256.5" y="102.1358"/><rect fill="#F1F1F1" height="46.1358" rx="5" ry="5" style="stroke:#F1F1F1;stroke-width:1.5;" width="133" x="214" y="189.6698"/><text fill="#000000" font-family="sans-serif" font-size="14" font-weight="bold" lengthAdjust="spacing" textLength="59" x="219" y="206.6357">terminal</text><text fill="#000000" font-family="sans-serif" font-size="14" lengthAdjust="spacing" textLength="54" x="288" y="206.6357">boolean</text><line style="stroke:#000000;stroke-width:1.0;" x1="283" x2="283" y1="189.6698" y2="212.7377"/><line style="stroke:#000000;stroke-width:1.0;" x1="214" x2="347" y1="212.7377" y2="212.7377"/><text fill="#000000" font-family="sans-serif" font-size="14" font-weight="bold" lengthAdjust="spacing" textLength="21" x="219" y="229.7036">file</text><text fill="#000000" font-family="sans-serif" font-size="14" lengthAdjust="spacing" textLength="40" x="288" y="229.7036">string</text><line style="stroke:#000000;stroke-width:1.0;" x1="283" x2="283" y1="212.7377" y2="235.8056"/><rect fill="none" height="46.1358" rx="5" ry="5" style="stroke:#000000;stroke-width:1.5;" width="133" x="214" y="189.6698"/><path d="M319,72.7377 L332,72.7377 C346.4411,72.7377 361.939,72.7377 376.6376,72.7377 " fill="none" style="stroke:#000000;stroke-width:1.0;stroke-dasharray:3.0,3.0;"/><path d="M376.6376,75.7792 L378.9187,72.7377 L376.6376,69.6962 L384.2413,72.7377 L376.6376,75.7792 " fill="#000000" style="stroke:#000000;stroke-width:1.0;"/><ellipse cx="319" cy="72.7377" fill="#000000" rx="3" ry="3" style="stroke:#000000;stroke-width:1.0;"/><path d="M165,113.7377 L178,113.7377 C196.5233,113.7377 197.6543,101.4514 214,92.7377 C217.4238,90.9125 220.9676,89.0685 224.5542,87.236 " fill="none" style="stroke:#000000;stroke-width:1.0;stroke-dasharray:3.0,3.0;"/><path d="M225.9549,90.008 L226.6331,86.1854 L223.1534,84.464 L231.4841,83.7341 L225.9549,90.008 " fill="#000000" style="stroke:#000000;stroke-width:1.0;"/><ellipse cx="165" cy="113.7377" fill="#000000" rx="3" ry="3" style="stroke:#000000;stroke-width:1.0;"/><path d="M165,136.7377 L178,136.7377 C201.9187,136.7377 228.9924,136.7377 249.2333,136.7377 " fill="none" style="stroke:#000000;stroke-width:1.0;stroke-dasharray:3.0,3.0;"/><path d="M249.2333,139.8081 L251.5361,136.7377 L249.2333,133.6673 L256.9093,136.7377 L249.2333,139.8081 " fill="#000000" style="stroke:#000000;stroke-width:1.0;"/><ellipse cx="165" cy="136.7377" fill="#000000" rx="3" ry="3" style="stroke:#000000;stroke-width:1.0;"/><path d="M165,159.7377 L178,159.7377 C196.5233,159.7377 197.6543,172.024 214,180.7377 C217.3553,182.5264 220.8259,184.3332 224.339,186.1295 " fill="none" style="stroke:#000000;stroke-width:1.0;stroke-dasharray:3.0,3.0;"/><path d="M222.9654,188.8453 L226.3759,187.1597 L225.7126,183.4136 L231.1286,189.5635 L222.9654,188.8453 " fill="#000000" style="stroke:#000000;stroke-width:1.0;"/><ellipse cx="165" cy="159.7377" fill="#000000" rx="3" ry="3" style="stroke:#000000;stroke-width:1.0;"/><!--SRC=[VL7HJi8m57tlLzn7I6HXWAXzGiKOaGbnGdmptNOtcdJjqjukuU_jG5ruCUd3lUVSddDkkt0aB1r5hPWMDN9mPAMk61sRlh5OMdG73gKoWfWIklAYwld6Pqgw0rh76S253a0hpZ30w4HTGI58G6VmBnf54NC-SxcLsO_oUVIowCO6obGLsY4OJusdinkXhQKMYaDcZ4AXJsWfLHzkWReuhSwsOIVQ9MjeWvKq6k9eCfvCetWwI4Atn1pYE1m-6VFh6qZI3-Zu8HiyRzVWZBSvGY4xtSnJ41YobMW5l7jDidkEJODwjNpz1U19jz8QNQCcjjed_S1yDdgG12dQ40Ns2LjYARoYS2CtHKZDuVujVVdwd4QpKNmtlsNhl-z0pHvDCB173hlq6m00]--></g></svg>